<?xml version="1.0" standalone="no"?><!DOCTYPE svg PUBLIC "-//W3C//DTD SVG 1.1//EN" "http://www.w3.org/Graphics/SVG/1.1/DTD/svg11.dtd"><svg t="1591954828382" class="icon" viewBox="0 0 1024 1024" version="1.1" xmlns="http://www.w3.org/2000/svg" p-id="1023" xmlns:xlink="http://www.w3.org/1999/xlink" width="200" height="200"><defs><style type="text/css"></style></defs><path d="M528.118519 949.096296l19.911111 3.792593L548.02963 987.022222l14.22222201 0-1e-8-32.237037c21.807407-1.896296 39.822222-7.585185 56.888889-16.118518l0-289.185186c1.896296 0 2.844444 0 4.74074-0.948148l0-256.00000001c-1.896296 0-2.844444 0-4.74074-0.94814799l0-286.340741c-34.133333-5.688889-60.681481-36.977778-113.777778-39.822222l0 65.42222201-48.355556-1e-8L457.007407 113.777778l-13.274074 0 0 17.066666-56.88888901 0L386.84444399 113.777778l-13.27407399-1e-8 0 19.911111-26.548148 0L347.022222 387.792593l-23.703703-7.585186-11.377778-3.792592L311.940741 621.985185 347.022222 621.98518499 347.022222 644.740741l-54.992592 5.688889 0 63.525926 54.99259201 6.637037L347.02222201 924.444444l26.54814798 0L373.57037 940.562963l13.274074 0 0-14.222222 56.888889 0L443.733333 940.562963l13.274074 0 0-14.222222 60.681482 0-1e-8-11.377778-60.68148199 0-1e-8-67.318519 60.68148201 0 0-11.377777-60.681482 0 0-67.318519 60.681482-1e-8-1e-8-11.37777799-60.68148199 0 0-67.318518 60.681482 0 0-11.377778-60.681482-1e-8 0-67.31851799 59.733334 0c3.792593 3.792593 7.585185 6.637037 11.377778 9.481481L528.118519 949.096296z m-18.962963-428.562963c0-23.703704 9.481481-44.562963 24.651851-59.733333C549.925926 445.62963 570.785185 436.148148 594.488889 436.148148l5.688889 0c1.896296 0 3.792593 0 5.688889 0.948148l4.74074 0.948148L610.607407 603.97037l-4.74074 0.948149c-1.896296 0-3.792593 0-5.688889 0.948148l-5.688889 0c-23.703704 0-44.562963-9.481481-59.733333-24.651852-16.118519-16.118519-25.6-36.977778-25.6-60.681482z m32.237037-52.148148c13.274074-13.274074 32.237037-21.807407 53.096296-21.807407l4.740741 0L599.22963 594.488889l-4.740741 0c-20.859259 0-38.874074-8.533333-53.096296-21.807408-13.274074-13.274074-21.807407-32.237037-21.807408-53.096296 0-19.911111 8.533333-37.925926 21.807408-51.2z m-34.13333399 133.688889l-49.30370301 0 0-67.318518 20.859259 0c0.948148 10.42963 3.792593 20.859259 6.637037 30.34074l-3.792593 0c-2.844444 0-5.688889 2.844444-5.688889 5.688889L475.97037 578.37037c0 2.844444 2.844444 5.688889 5.688889 5.688889l12.325926 0c3.792593 5.688889 8.533333 12.325926 13.27407401 18.014815z m-29.39259201-78.696296l-20.85926-1e-8 0-67.31851899 37.925926 0c-5.688889 10.42963-10.42963 20.859259-13.274074 32.237037-2.844444 0-5.688889 2.844444-5.688889 5.688889l0 7.585185c0 1.896296 0.948148 3.792593 1.896297 4.740741-0.948148 4.740741-0.948148 9.481481-0.948148 15.17037 0.948148 0 0.948148 0.948148 0.948148 1.896297zM502.518519 445.62963l-44.562963 0 0-67.318519 60.681481 0 0-11.377778-60.681481 0 0-67.318518 60.681481 0 0-11.37777801-60.681481 1e-8 0-67.318518 60.681481 0 0-11.377778-60.681481 0L457.955556 142.222222l48.355555-1e-8 0 28.44444501 22.755556 8.533333L529.066667 418.133333c-10.42963 7.585185-19.911111 17.066667-26.548148 27.496297z m-150.755556-55.940741l0-250.311111 21.807407 0L373.57037 394.42963001l-6.637037 0-15.17037-4.74074101zM373.57037 919.703704l-21.807407 0 0-199.11111099 21.807407 1.896296L373.57037 919.703704z m-21.807407-274.962963l0-22.75555601 21.807407 0 0 19.91111101-21.807407 2.844445z m124.207407-465.540741l0-7.585185c0-2.844444 2.844444-5.688889 5.688889-5.688889l14.222222 0c2.844444 0 5.688889 2.844444 5.688889 5.688889l0 7.585185c0 2.844444-2.844444 5.688889-5.688889 5.688889l-14.222222 0c-2.844444 0-5.688889-2.844444-5.688889-5.688889z m-73.007407 0l0-7.585185c0-2.844444 2.844444-5.688889 5.688889-5.688889l14.222222 0c2.844444 0 5.688889 2.844444 5.688889 5.68888901l0 7.585185c0 2.844444-2.844444 5.688889-5.68888899 5.68888899L407.70370401 184.888889c-2.844444 0-4.740741-2.844444-4.74074101-5.688889z m73.007407 82.488889l0-7.585185c0-2.844444 2.844444-5.688889 5.688889-5.688889l14.222222 0c2.844444 0 5.688889 2.844444 5.688889 5.688889l0 7.585185c0 2.844444-2.844444 5.688889-5.688889 5.688889l-14.222222 0c-2.844444 0-5.688889-1.896296-5.688889-5.688889z m-73.007407 0l0-7.585185c0-2.844444 2.844444-5.688889 5.688889-5.688889l14.222222 0c2.844444 0 5.688889 2.844444 5.688889 5.688889l0 7.585185c0 2.844444-2.844444 5.688889-5.688889 5.688889L407.703704 267.377778c-2.844444 0-4.740741-1.896296-4.740741-5.688889z m73.007407 76.8l0-7.585185c0-2.844444 2.844444-5.688889 5.688889-5.688889l14.222222 0c2.844444 0 5.688889 2.844444 5.688889 5.688889l0 7.585185c0 2.844444-2.844444 5.688889-5.688889 5.688889l-14.222222 0c-2.844444 0-5.688889-2.844444-5.688889-5.688889z m-73.007407 0l0-7.585185c0-2.844444 2.844444-5.688889 5.688889-5.68888899l14.222222 0c2.844444 0 5.688889 2.844444 5.688889 5.688889l0 7.585185c0 2.844444-2.844444 5.688889-5.68888899 5.68888899L407.70370401 344.177778c-2.844444 0-4.740741-2.844444-4.74074101-5.688889z m73.007407 82.488889l0-7.585185c0-2.844444 2.844444-5.688889 5.688889-5.688889l14.222222 0c2.844444 0 5.688889 2.844444 5.688889 5.688889l0 7.585185c0 2.844444-2.844444 5.688889-5.688889 5.688889l-14.222222 0c-2.844444-0.948148-5.688889-2.844444-5.688889-5.688889z m-73.007407 0l0-7.585185c0-2.844444 2.844444-5.688889 5.688889-5.688889l14.222222 0c2.844444 0 5.688889 2.844444 5.688889 5.688889l0 7.585185c0 2.844444-2.844444 5.688889-5.688889 5.688889L407.703704 426.666667c-2.844444-0.948148-4.740741-2.844444-4.740741-5.688889z m0 80.592592l0-7.585185c0-2.844444 2.844444-5.688889 5.688889-5.688889l14.222222 0c2.844444 0 5.688889 2.844444 5.688889 5.688889l0 7.585185c0 2.844444-2.844444 5.688889-5.688889 5.68888901L407.703704 507.25925901c-2.844444 0-4.740741-2.844444-4.740741-5.68888901z m0 75.851852l0-7.585185c0-2.844444 2.844444-5.688889 5.688889-5.688889l14.222222 0c2.844444 0 5.688889 2.844444 5.688889 5.688889l0 7.585185c0 2.844444-2.844444 5.688889-5.688889 5.688889L407.703704 583.111111c-2.844444 0-4.740741-2.844444-4.740741-5.688889z m73.007407 82.488889l0-7.585185c0-2.844444 2.844444-5.688889 5.688889-5.688889l14.222222 0c2.844444 0 5.688889 2.844444 5.688889 5.688889l0 7.585185c0 2.844444-2.844444 5.688889-5.688889 5.688889l-14.222222 0c-2.844444 0-5.688889-2.844444-5.688889-5.688889z m-73.007407 0l0-7.585185c0-2.844444 2.844444-5.688889 5.688889-5.688889l14.222222 0c2.844444 0 5.688889 2.844444 5.688889 5.68888901l0 7.585185c0 2.844444-2.844444 5.688889-5.68888899 5.68888899L407.70370401 665.6c-2.844444 0-4.740741-2.844444-4.74074101-5.688889z m73.007407 69.214815l0-7.585185c0-2.844444 2.844444-5.688889 5.688889-5.688889l14.222222 0c2.844444 0 5.688889 2.844444 5.688889 5.688889l0 7.585185c0 2.844444-2.844444 5.688889-5.688889 5.688889l-14.222222 0c-2.844444 0-5.688889-1.896296-5.688889-5.688889z m-73.007407 0l0-7.585185c0-2.844444 2.844444-5.688889 5.688889-5.688889l14.222222 0c2.844444 0 5.688889 2.844444 5.688889 5.688889l0 7.585185c0 2.844444-2.844444 5.688889-5.688889 5.688889L407.703704 734.814815c-2.844444 0-4.740741-1.896296-4.740741-5.688889zM475.97037 805.925926l0-7.585185c0-2.844444 2.844444-5.688889 5.688889-5.688889l14.222222 0c2.844444 0 5.688889 2.844444 5.688889 5.688889L501.57037 805.925926c0 2.844444-2.844444 5.688889-5.688889 5.688889l-14.222222 0c-2.844444-0.948148-5.688889-2.844444-5.688889-5.688889z m-73.007407 0l0-7.585185c0-2.844444 2.844444-5.688889 5.688889-5.688889l14.222222 0c2.844444 0 5.688889 2.844444 5.688889 5.68888901L428.562963 805.92592601c0 2.844444-2.844444 5.688889-5.68888899 5.68888899L407.70370401 811.614815c-2.844444-0.948148-4.740741-2.844444-4.74074101-5.688889z m73.007407 82.488889l0-7.585185c0-2.844444 2.844444-5.688889 5.688889-5.688889l14.222222 0c2.844444 0 5.688889 2.844444 5.688889 5.688889l0 7.585185c0 2.844444-2.844444 5.688889-5.688889 5.688889l-14.222222 0c-2.844444-0.948148-5.688889-2.844444-5.688889-5.688889z m-73.007407 0l0-7.585185c0-2.844444 2.844444-5.688889 5.688889-5.688889l14.222222 0c2.844444 0 5.688889 2.844444 5.688889 5.688889l0 7.585185c0 2.844444-2.844444 5.688889-5.688889 5.688889L407.703704 894.103704c-2.844444-0.948148-4.740741-2.844444-4.740741-5.688889z m-68.266667-470.281482l17.066667 0L351.762963 407.70370401l10.42963 3.79259199 10.429629 0L372.622222 604.918519l-44.562963 0 0-203.851852 5.688889 1.896296 0 15.17037 0.948148 0z m0 133.688889l0-18.014815 17.066667 0 0 18.014815-17.066667 0z m0-34.133333l0-18.014815 17.066667 0 0 18.014815-17.066667 0z m0-33.185185l0-18.014815 17.066667 0 0 18.014815-17.066667 0z m0-33.185185l0-18.014815 17.066667-1e-8 0 18.01481501-17.066667 0z m0 133.688888l0-18.014814 17.066667 1e-8 0 18.01481399-17.066667 0zM443.733333 915.911111l-56.88888901 0 1e-8-67.318518 56.888889 0 0 67.318518z m0-78.69629601l-56.888889 1e-8-1e-8-67.318519 56.88888901 0 0 67.31851899z m0-78.69629599l-56.888889 0 0-67.318519 56.888889-1e-8L443.733333 758.518519z m0-77.74814899l-56.888889-1e-8 0-67.318518 56.888889 0 0 67.31851801z m0-78.69629601l-56.88888901 0 1e-8-67.318518 56.888889 0 0 67.318518z m0-78.69629601l-56.888889 1e-8-1e-8-67.318519 56.88888901 0 0 67.31851899z m0-77.74814799l-56.888889 0 0-66.370371 56.888889-1e-8 0 66.37037101z m1e-8-78.696297l-56.88888901 0 0-67.318518 56.888889 0 1e-8 67.318518z m-1e-8-78.696296l-56.88888901 0 1e-8-67.318518 56.888889 0 0 67.318518z m0-77.74814801l-56.888889 1e-8-1e-8-67.318519 56.88888901 0 0 67.31851899z" fill="#000001" p-id="1024"></path></svg>